<svg width="213" height="213" viewBox="0 0 213 213" fill="none" xmlns="http://www.w3.org/2000/svg">
<g filter="url(#filter0_dd_1293_2)">
<rect x="2" y="3" width="208.543" height="204.609" rx="77.384" fill="url(#paint0_linear_1293_2)"/>
</g>
<path d="M166.686 78.765L166.659 78.6483L166.622 78.534C165.048 73.6946 162.533 69.3893 159.351 66.0802C156.109 62.7139 152.225 60.4606 148.058 59.5216C147.991 59.2483 147.925 58.9899 147.829 58.744C145.915 51.9742 142.213 46.7249 136.821 43.14C131.696 39.7291 125.301 38 117.819 38C117.284 38 116.737 38.0099 116.196 38.0273L116.053 38.0323L115.912 38.0547C103.393 39.9477 91.0451 45.3237 81.1362 53.194C71.4515 59.8942 61.2446 71.8885 53.8209 85.2988C45.4292 100.458 41.7248 115.307 43.3898 127.11C45.1509 139.583 52.8283 148.564 65.6288 153.15C67.7323 158.472 71.2889 162.894 75.9712 165.992C80.7889 169.179 86.7028 170.911 93.0747 171H93.1979C103.597 170.63 114.508 167.214 124.752 161.12C134.432 155.361 143.361 147.342 150.575 137.926C157.329 129.11 162.405 119.257 165.252 109.431C168.346 98.7563 168.831 88.4389 166.688 78.77L166.686 78.765Z" fill="#FDFEFD"/>
<path d="M86.3604 58.431C86.4121 58.3614 86.4836 58.3217 86.5673 58.3117C86.9491 58.339 87.2003 58.18 87.2939 57.795L87.2914 57.7999C87.3826 57.7279 87.4737 57.6559 87.5624 57.5838C87.5624 57.5838 87.5698 57.5788 87.5673 57.5788C87.789 57.5913 87.9663 57.5366 88.0205 57.2857H88.0156C89.4712 56.5826 90.8038 55.6957 91.986 54.5853C92.5156 54.5356 92.9786 54.3741 93.2176 53.8375C94.7841 53.1717 96.3161 52.4438 97.6535 51.3606C98.2792 51.4575 98.7496 51.0675 99.2521 50.8166C103.745 48.5807 108.42 46.9286 113.378 46.0815C114.045 45.9672 114.88 46.2578 115.425 45.5647C115.59 45.5473 115.755 45.5299 115.92 45.5101C117.952 45.756 119.986 45.756 122.018 45.5101C122.183 45.5324 122.348 45.5523 122.511 45.5747C122.629 45.679 122.737 45.8604 122.863 45.8728C124.523 46.0343 126.065 46.6404 127.656 47.0702C129.168 47.4801 130.388 48.5012 131.888 48.8862C131.966 48.926 132.045 48.9682 132.124 49.008C132.188 49.2763 132.361 49.393 132.629 49.3781C132.708 49.4229 132.787 49.4676 132.865 49.5123C132.922 49.7781 133.095 49.8899 133.356 49.8825C133.434 49.9371 133.513 49.9918 133.592 50.0464C133.636 50.2178 133.72 50.3396 133.92 50.3296L133.878 50.3843L133.915 50.3296C133.981 50.7072 134.228 50.8588 134.585 50.8762C134.678 50.9606 134.774 51.0476 134.868 51.1321C134.947 51.2066 135.023 51.2811 135.102 51.3581C135.457 51.5867 135.745 51.8774 135.927 52.2674C135.9 52.5953 136.077 52.7568 136.373 52.8189L136.38 52.8313C136.459 53.1344 136.523 53.445 136.878 53.5518L136.89 53.5692C136.947 53.8797 137.018 54.1828 137.365 54.2996C137.365 54.2996 137.385 54.3244 137.383 54.3244C137.644 55.2734 138.144 56.0858 138.792 56.8137C138.843 56.8683 138.873 56.9329 138.875 57.0099C138.89 57.3379 138.991 57.6186 139.277 57.8099C139.329 57.8745 139.356 57.9465 139.356 58.0285C139.486 58.8533 139.74 59.6284 140.262 60.2942C140.304 60.4408 140.346 60.5873 140.385 60.7339C140.304 61.2432 140.444 61.6854 140.782 62.068C140.836 62.2444 140.888 62.4233 140.942 62.5996C140.789 63.1338 140.957 63.5983 141.265 64.0281C141.292 64.1772 141.319 64.3237 141.346 64.4728C141.644 65.7994 141.272 67.1956 141.762 68.4999C141.905 69.424 141.654 70.3755 141.962 71.2873C141.787 71.9282 141.824 72.5841 141.838 73.2374C141.713 73.5629 141.713 73.8933 141.787 74.2312L141.737 74.974C141.383 75.5975 141.486 76.2857 141.454 76.9565C141.412 77.0037 141.402 77.0558 141.43 77.1155C141.265 77.2869 141.24 77.4906 141.304 77.7117C141.208 78.0247 141.07 78.3303 141.021 78.6483C140.425 82.4592 139.319 86.1385 137.954 89.7184C132.031 105.27 122.575 118.348 110.375 129.485C106.959 132.603 103.136 135.166 99.4023 137.854C99.3087 137.921 99.2151 137.986 99.1215 138.053L99.1289 138.048C99.0279 138.123 98.9269 138.197 98.826 138.274C98.7594 138.277 98.7028 138.304 98.6585 138.356C98.5649 138.418 98.4737 138.483 98.3801 138.545V138.538C98.0427 138.555 97.7989 138.726 97.624 139.01H97.6141C97.2126 139.208 96.8062 139.397 96.4146 139.611C89.9442 143.134 83.2052 145.844 75.8037 146.53C74.3628 146.664 72.9145 146.718 71.3751 146.815C72.5672 148.751 74.1362 150.169 75.7742 151.416C77.8776 153.014 80.4835 153.466 83.0525 153.709C90.1978 154.387 96.8727 152.666 103.277 149.56C113.612 144.55 122.235 137.338 129.767 128.719C136.962 120.489 142.782 111.399 146.462 101.017C148.735 94.6 150.42 88.0464 150.109 81.15C149.902 76.5366 148.678 72.2686 145.41 68.8179C145.331 68.7284 145.252 68.6365 145.171 68.5471C145.09 68.4651 145.006 68.3831 144.925 68.3011C144.841 68.2216 144.757 68.1446 144.671 68.0651H144.644C144.952 67.1757 145.604 66.7708 146.506 66.7137C153.132 69.2303 157.193 74.2237 159.267 80.8121C161.245 87.0949 161.055 93.5715 159.696 99.9711C156.439 115.297 149.006 128.397 138.548 139.854C130.949 148.179 122.107 154.755 111.829 159.349C105.787 162.049 99.5107 163.666 92.8752 163.55C86.9565 163.445 81.5648 161.811 77.0845 157.679C74.4712 155.272 72.7347 152.328 71.6707 148.972C71.2101 147.523 70.5599 146.706 68.88 146.43C59.9785 144.969 54.3972 139.608 51.6559 131.055C50.1805 126.449 49.9859 121.749 50.5105 116.979C50.6583 115.632 50.7248 114.273 51.1263 112.966C51.348 112.837 51.4071 112.691 51.1805 112.507C51.215 112.34 51.2519 112.176 51.2864 112.01C51.8578 111.526 51.5647 110.857 51.6485 110.269C51.6879 110.102 51.7297 109.938 51.7692 109.772C52.1583 109.583 52.1189 109.262 52.0204 108.925C52.0549 108.778 52.0869 108.634 52.1214 108.487C52.9637 106.433 53.5967 104.309 54.1189 102.15C54.1632 102.043 54.2076 101.934 54.2544 101.827C55.0697 100.49 55.577 99.0271 55.9982 97.5265C56.0475 97.3825 56.0968 97.2384 56.146 97.0918C56.4711 97.0098 56.5549 96.7986 56.4613 96.4931C56.4564 96.4235 56.4785 96.3664 56.5278 96.3192C57.0303 95.7254 57.412 95.0745 57.4588 94.2696C57.5524 94.0584 57.646 93.8448 57.7396 93.6336C57.8923 93.5591 57.9982 93.4597 57.944 93.266C57.9416 93.1964 57.9638 93.1368 58.013 93.0871C58.4958 92.5728 58.7766 91.9518 58.9317 91.2686C59.0253 91.0624 59.1214 90.8587 59.215 90.6525C59.3702 90.5829 59.4736 90.481 59.4342 90.2922C59.4909 90.1606 59.5475 90.0264 59.6042 89.8947C60.178 89.5544 60.3455 88.978 60.4613 88.3743L60.4638 88.3694C60.779 88.1905 60.88 87.8924 60.9194 87.557C60.9761 87.4253 61.0303 87.2937 61.0869 87.1645C61.6411 86.8887 61.7495 86.3422 61.8997 85.818C61.9613 85.6888 62.0229 85.5571 62.082 85.428C62.3554 85.3534 62.4588 85.1671 62.4268 84.8913C63.0426 84.5734 63.1707 83.9423 63.3825 83.366L63.3751 83.3759C63.7889 83.0679 64.1239 82.7101 64.1411 82.1487C64.7101 81.8183 65.0106 81.3015 65.1436 80.668V80.6705C65.2175 80.5786 65.2914 80.4867 65.3677 80.3947C65.3677 80.3947 65.3628 80.3972 65.3628 80.3997C65.7421 80.3053 65.9047 80.0544 65.8751 79.6668C66.4441 79.4159 66.715 78.9464 66.8259 78.3576C66.8308 78.288 66.8603 78.2359 66.917 78.1986C67.247 78.1738 67.38 77.9899 67.3357 77.667V77.6695C67.8456 77.3962 68.3308 77.1055 68.3037 76.4124C68.3037 76.4124 68.3037 76.4124 68.3037 76.4149C68.917 76.2261 69.1461 75.7292 69.2865 75.1628L69.3259 75.2174L69.2815 75.1628C69.7667 75.0212 70.0648 74.733 70.0401 74.1865H70.0426C70.1929 74.1616 70.2717 74.0747 70.2717 73.9206H70.2667C71.1239 73.2598 71.8456 72.4847 72.2791 71.4686C72.4318 71.2997 72.587 71.1308 72.7397 70.9618C74.0377 69.8563 75.4072 68.8154 76.2175 67.2453C77.7668 66.423 78.8037 65.0516 79.9047 63.7449C79.986 63.6679 80.0697 63.5909 80.151 63.5139C80.8456 63.4418 81.2027 62.9847 81.422 62.3736C81.4638 62.3065 81.5229 62.2692 81.5993 62.2593C81.8037 62.2469 81.8924 62.1202 81.9269 61.9338C81.9983 61.8842 82.0722 61.8345 82.1436 61.7873C82.6954 61.7575 82.9909 61.4196 83.1535 60.9252C83.2225 60.878 83.2914 60.8333 83.3604 60.7861C83.4466 60.7091 83.5328 60.6345 83.6215 60.5575L83.6264 60.5526C84.3259 60.3066 84.9885 60.0135 85.3062 59.2607L85.3037 59.2682C85.3949 59.1936 85.4835 59.1166 85.5722 59.0396C86.018 59.0694 86.2668 58.8458 86.353 58.4185L86.3604 58.431ZM52.5967 121.691C52.6288 123.214 52.5795 124.732 52.8357 126.253C53.3603 129.365 54.2248 132.165 57.0229 134.135C62.0943 137.705 67.6756 138.803 73.6732 138.016C78.4515 137.387 82.9515 135.738 87.3161 133.72C94.6387 130.337 101.136 125.699 107.053 120.238C111.53 116.107 115.639 111.603 119.235 106.664C123.806 100.389 127.769 93.7479 130.523 86.4366C133.432 78.7129 135.54 70.8525 134.636 62.4456C134.188 58.2794 132.831 54.5331 130.366 51.1569C129.25 49.6291 127.742 48.844 126.008 48.3794C121.769 47.2466 117.481 47.3882 113.26 48.2677C107.218 49.5297 101.533 51.8028 96.1264 54.8436C88.3752 59.2011 81.6141 64.751 75.5328 71.255C71.8086 75.2373 68.5106 79.5103 65.5648 84.079C62.2322 89.2538 59.4835 94.7391 57.2027 100.463C54.4859 107.277 52.4416 114.239 52.5992 121.689L52.5967 121.691ZM150.422 71.2947C150.329 71.3469 150.235 71.3991 150.141 71.4512C150.309 71.9009 150.467 72.358 150.646 72.8027C151.602 75.1926 152.124 77.7117 152.297 80.2482C152.772 87.2688 151.319 94.0336 149.06 100.61C147.087 106.351 144.474 111.809 141.272 116.984C137.533 123.026 133.41 128.752 128.375 133.765C125.873 136.257 123.314 138.687 120.587 140.942C116.528 144.301 112.247 147.329 107.668 149.901C100.624 153.856 93.1043 156.144 84.9786 156.251C84.2594 156.261 83.5796 155.54 82.7939 156.146C82.9244 156.251 83.0032 156.36 83.1067 156.39C86.89 157.508 90.7446 157.764 94.624 157.155C103.412 155.774 111.437 152.33 118.915 147.59C125.146 143.64 130.644 138.806 135.604 133.296C139.269 129.221 142.705 124.988 145.688 120.397C149.373 114.725 152.728 108.858 155.373 102.607C156.789 99.2581 157.917 95.79 158.22 92.1555C158.597 87.6166 157.907 83.1896 156.173 78.9538C154.917 75.8857 152.976 73.3542 150.425 71.2947H150.422ZM81.7372 155.833C81.6683 155.794 81.6067 155.731 81.5451 155.729C81.4811 155.729 81.417 155.784 81.353 155.816C81.4146 155.853 81.4737 155.915 81.5353 155.92C81.5993 155.923 81.6633 155.868 81.7372 155.833Z" fill="#E59D1C"/>
<path d="M115.43 45.5647C114.885 46.2578 114.05 45.9672 113.383 46.0815C108.425 46.9286 103.75 48.5782 99.257 50.8166C98.7545 51.0675 98.2841 51.455 97.6585 51.3606C99.3309 50.0588 101.346 49.4676 103.247 48.6502C106.728 47.1522 110.368 46.1908 114.095 45.5622C114.533 45.4877 114.984 45.3834 115.427 45.5672L115.43 45.5647Z" fill="#FDC640"/>
<path d="M146.506 66.7087C145.604 66.7633 144.954 67.1708 144.646 68.0577C143.848 67.7819 143.321 67.1087 142.636 66.664C142.41 66.5174 142.205 66.1597 141.905 66.3758C141.654 66.5547 141.782 66.9099 141.792 67.1906C141.804 67.6279 142.109 68.0676 141.765 68.4974C141.274 67.1906 141.649 65.7945 141.348 64.4703C141.678 65.3224 142.366 65.6007 143.2 65.7696C144.324 65.9957 145.511 66.023 146.506 66.7112V66.7087Z" fill="#FDC640"/>
<path d="M131.893 48.8838C130.393 48.5012 129.173 47.4776 127.661 47.0677C126.07 46.6379 124.528 46.0293 122.868 45.8703C122.742 45.8579 122.634 45.6765 122.516 45.5722C124.905 45.4952 127.08 46.3224 129.2 47.2814C130.144 47.7087 131.2 48.0018 131.893 48.8838Z" fill="#FDC640"/>
<path d="M122.023 45.5101C119.991 45.7585 117.957 45.7585 115.925 45.5101C117.957 45.0703 119.991 45.0927 122.023 45.5101Z" fill="#FDC640"/>
<path d="M79.9146 63.7573C78.816 65.0641 77.7791 66.4354 76.2274 67.2577C77.2594 65.8814 78.3973 64.6169 79.9146 63.7573Z" fill="#FDC640"/>
<path d="M54.1189 102.152C53.5967 104.311 52.9662 106.435 52.1214 108.49C52.4884 106.281 53.1657 104.172 54.1189 102.152Z" fill="#FDC640"/>
<path d="M76.2274 67.2552C75.417 68.8253 74.0476 69.8662 72.7495 70.9718C73.5968 69.4365 74.8751 68.3111 76.2274 67.2552Z" fill="#FDC640"/>
<path d="M97.656 51.3606C96.3186 52.4438 94.7841 53.1717 93.22 53.8375C94.5279 52.6997 96.0057 51.8724 97.656 51.3606Z" fill="#FDC640"/>
<path d="M91.991 54.5828C90.8062 55.6933 89.4762 56.5802 88.0205 57.2832C89.1535 56.0982 90.4983 55.2287 91.991 54.5828Z" fill="#FDC640"/>
<path d="M54.2544 101.827C55.0697 100.49 55.577 99.0271 55.9982 97.5265C55.1583 98.8532 54.5475 100.274 54.2544 101.827Z" fill="#FDC640"/>
<path d="M72.2889 71.481C71.8554 72.4971 71.1362 73.2722 70.2766 73.9331C70.7323 72.9368 71.3357 72.0624 72.2889 71.481Z" fill="#FDC640"/>
<path d="M138.797 56.8087C138.149 56.0808 137.649 55.2684 137.388 54.3194C138.055 55.0349 138.565 55.8423 138.797 56.8087Z" fill="#FDC640"/>
<path d="M85.3161 59.2731C84.9983 60.0234 84.3358 60.319 83.6362 60.565C83.9959 59.8719 84.5993 59.4967 85.3161 59.2731Z" fill="#FDC640"/>
<path d="M140.265 60.2892C139.745 59.6234 139.491 58.8483 139.358 58.0235C139.902 58.6819 140.198 59.4396 140.265 60.2892Z" fill="#FDC640"/>
<path d="M57.4588 94.2721C57.412 95.077 57.0303 95.7279 56.5278 96.3217C56.6066 95.5316 56.8874 94.836 57.4588 94.2721Z" fill="#FDC640"/>
<path d="M81.4318 62.386C81.2126 62.9971 80.8554 63.4518 80.1609 63.5263C80.4195 62.9599 80.816 62.5475 81.4318 62.386Z" fill="#FDC640"/>
<path d="M60.4638 88.3768C60.348 88.9805 60.1805 89.5569 59.6066 89.8972C59.715 89.2886 59.9219 88.7371 60.4638 88.3768Z" fill="#FDC640"/>
<path d="M68.3111 76.4174C68.3382 77.1105 67.8529 77.4011 67.3431 77.6744C67.4515 77.0881 67.7864 76.6757 68.3111 76.4174Z" fill="#FDC640"/>
<path d="M65.1485 80.673C65.018 81.3065 64.7175 81.8232 64.146 82.1536C64.2864 81.5276 64.6017 81.0208 65.1485 80.673Z" fill="#FDC640"/>
<path d="M51.6509 110.269C51.5672 110.857 51.8578 111.526 51.2889 112.01C51.1756 111.382 51.3874 110.82 51.6509 110.269Z" fill="#FDC640"/>
<path d="M69.2963 75.1678C69.1534 75.7342 68.9268 76.231 68.3135 76.4198C68.4342 75.836 68.7544 75.4137 69.2963 75.1678Z" fill="#FDC640"/>
<path d="M83.1633 60.9376C83.0008 61.432 82.7052 61.7674 82.1535 61.7997C82.3333 61.3252 82.6239 60.9823 83.1633 60.9376Z" fill="#FDC640"/>
<path d="M63.3899 83.366C63.1756 83.9423 63.0475 84.5709 62.4342 84.8913C62.5426 84.2479 62.8603 83.7411 63.3899 83.366Z" fill="#FDC640"/>
<path d="M141.267 64.0231C140.959 63.5934 140.794 63.1313 140.944 62.5947C141.289 63.017 141.366 63.499 141.267 64.0231Z" fill="#FDC640"/>
<path d="M61.9022 85.818C61.7519 86.3422 61.6436 86.8887 61.0894 87.1645C61.1362 86.5782 61.4047 86.1285 61.9022 85.818Z" fill="#FDC640"/>
<path d="M66.8308 78.3651C66.7199 78.9538 66.449 79.4259 65.88 79.6743C65.9736 79.0731 66.3185 78.6557 66.8308 78.3651Z" fill="#FDC640"/>
<path d="M58.9342 91.271C58.779 91.9542 58.4982 92.5728 58.0155 93.0896C58.114 92.3766 58.3973 91.7605 58.9342 91.271Z" fill="#FDC640"/>
<path d="M93.22 53.8375C92.9811 54.3741 92.5181 54.5331 91.9885 54.5853C92.252 54.0934 92.6954 53.8971 93.22 53.8375Z" fill="#FDC640"/>
<path d="M70.05 74.1939C70.0771 74.7405 69.7766 75.0286 69.2914 75.1702C69.3702 74.7082 69.5919 74.3579 70.05 74.1939Z" fill="#FDC640"/>
<path d="M140.784 62.0655C140.447 61.6829 140.306 61.2407 140.388 60.7314C140.767 61.1016 140.826 61.5686 140.784 62.0655Z" fill="#FDC640"/>
<path d="M64.146 82.1512C64.1288 82.7101 63.7938 83.0679 63.38 83.3784C63.4736 82.8666 63.6608 82.4145 64.146 82.1512Z" fill="#FDC640"/>
<path d="M86.3604 58.431C86.2742 58.8583 86.0254 59.0819 85.5796 59.052C85.7101 58.6794 85.9367 58.431 86.3604 58.431Z" fill="#FDC640"/>
<path d="M52.0228 108.925C52.1214 109.262 52.1608 109.58 51.7716 109.772C51.6386 109.424 51.7248 109.143 52.0228 108.925Z" fill="#FDC640"/>
<path d="M134.59 50.8712C134.232 50.8563 133.986 50.7023 133.92 50.3247C134.255 50.3669 134.516 50.5035 134.59 50.8712Z" fill="#FDC640"/>
<path d="M87.2964 57.7925C87.2028 58.1776 86.9515 58.3366 86.5698 58.3092C86.6707 57.9341 86.9515 57.8173 87.2964 57.7925Z" fill="#FDC640"/>
<path d="M65.8776 79.6743C65.9071 80.0618 65.7446 80.3103 65.3653 80.4072C65.3997 80.0668 65.5106 79.7786 65.8776 79.6743Z" fill="#FDC640"/>
<path d="M132.634 49.3781C132.365 49.393 132.193 49.2763 132.129 49.008C132.42 48.9608 132.565 49.1173 132.634 49.3781Z" fill="#FDC640"/>
<path d="M67.3431 77.6719C67.385 77.9949 67.2544 78.1787 66.9244 78.2036C66.9194 77.9104 67.0672 77.739 67.3431 77.6719Z" fill="#FDC640"/>
<path d="M60.9219 87.5595C60.8825 87.8949 60.7815 88.193 60.4662 88.3719C60.4613 88.0116 60.5746 87.7185 60.9219 87.5595Z" fill="#FDC640"/>
<path d="M133.358 49.8825C133.099 49.8899 132.925 49.7781 132.868 49.5123C133.151 49.4725 133.301 49.6166 133.358 49.8825Z" fill="#FDC640"/>
<path d="M136.883 53.5443C136.528 53.4375 136.462 53.127 136.385 52.8239C136.728 52.9406 136.858 53.204 136.883 53.5443Z" fill="#FDC640"/>
<path d="M139.279 57.8049C138.996 57.6161 138.893 57.3329 138.878 57.005C139.186 57.1838 139.301 57.4596 139.279 57.8049Z" fill="#FDC640"/>
<path d="M137.368 54.2946C137.018 54.1778 136.949 53.8747 136.893 53.5642C137.225 53.6934 137.348 53.9617 137.368 54.2946Z" fill="#FDC640"/>
<path d="M51.1829 112.504C51.4095 112.686 51.3504 112.835 51.1288 112.964C50.9859 112.793 51.0031 112.639 51.1829 112.504Z" fill="#FDC640"/>
<path d="M56.4613 96.4931C56.5549 96.7986 56.4711 97.0123 56.146 97.0918C56.0894 96.8036 56.2273 96.6223 56.4613 96.4931Z" fill="#FDC640"/>
<path d="M62.4317 84.8938C62.4638 85.1696 62.3603 85.3559 62.0869 85.4304C62.0327 85.1423 62.1731 84.9783 62.4317 84.8938Z" fill="#FDC640"/>
<path d="M136.375 52.8139C136.08 52.7518 135.902 52.5904 135.93 52.2624C136.181 52.3618 136.351 52.5282 136.375 52.8139Z" fill="#FDC640"/>
<path d="M133.922 50.3271C133.723 50.3371 133.639 50.2129 133.595 50.0439C133.806 50.0166 133.888 50.1458 133.922 50.3271Z" fill="#FDC640"/>
<path d="M81.9367 61.9463C81.9047 62.1326 81.8136 62.2618 81.6091 62.2717C81.6436 62.0879 81.7175 61.9413 81.9367 61.9463Z" fill="#FDC640"/>
<path d="M59.4367 90.2922C59.4785 90.4835 59.3726 90.5829 59.2175 90.6525C59.1386 90.4388 59.2716 90.3543 59.4367 90.2922Z" fill="#FDC640"/>
<path d="M88.0254 57.2832C87.9712 57.5341 87.7914 57.5888 87.5722 57.5764C87.6486 57.3602 87.8185 57.2907 88.0254 57.2832Z" fill="#FDC640"/>
<path d="M57.9465 93.2684C58.0007 93.4597 57.8948 93.5616 57.7421 93.6361C57.6485 93.4225 57.7839 93.338 57.9465 93.2684Z" fill="#FDC640"/>
<path d="M87.5648 57.5813C87.4737 57.6534 87.3826 57.7254 87.2939 57.7975C87.385 57.7254 87.4762 57.6534 87.5648 57.5813Z" fill="#FDC640"/>
<path d="M135.107 51.3532C135.028 51.2786 134.952 51.2041 134.873 51.1271C134.952 51.2016 135.028 51.2762 135.107 51.3532Z" fill="#FDC640"/>
<path d="M83.6313 60.57C83.5451 60.647 83.4589 60.7215 83.3702 60.7985C83.4564 60.7215 83.5427 60.647 83.6313 60.57Z" fill="#FDC640"/>
<path d="M65.3702 80.4022C65.2963 80.4941 65.2224 80.586 65.146 80.678C65.2199 80.586 65.2938 80.4941 65.3702 80.4022Z" fill="#FDC640"/>
<path d="M70.2815 73.9306C70.2815 74.0846 70.2027 74.1715 70.0525 74.1964C70.1288 74.107 70.2052 74.02 70.2815 73.9306Z" fill="#FDC640"/>
<path d="M52.5967 121.691C52.4391 114.243 54.4834 107.28 57.2002 100.465C59.481 94.7416 62.2298 89.2538 65.5623 84.0815C68.5057 79.5128 71.8062 75.2398 75.5303 71.2575C81.6116 64.7535 88.3727 59.2036 96.124 54.8461C101.53 51.8078 107.215 49.5322 113.257 48.2701C117.479 47.3882 121.769 47.2491 126.006 48.3819C127.74 48.8465 129.247 49.6315 130.363 51.1594C132.829 54.5356 134.186 58.2819 134.634 62.4481C135.54 70.8575 133.432 78.7154 130.521 86.4391C127.767 93.7504 123.804 100.391 119.232 106.666C115.636 111.603 111.526 116.107 107.05 120.241C101.134 125.701 94.6363 130.339 87.3136 133.723C82.9491 135.74 78.449 137.39 73.6707 138.018C67.6731 138.806 62.0918 137.708 57.0204 134.138C54.2224 132.168 53.3603 129.368 52.8332 126.255C52.577 124.735 52.6263 123.214 52.5943 121.694L52.5967 121.691ZM74.2742 80.8717C74.2643 83.9274 75.3012 84.946 77.7077 84.9162C79.2421 84.8963 80.6165 84.2703 81.8456 83.5126C86.8308 80.437 91.1831 76.6012 94.8383 71.9878C96.5476 69.829 98.1437 67.5881 98.9663 64.9026C99.8407 62.0431 98.0993 60.1874 95.22 60.6519C92.3481 61.1165 89.8875 62.4307 87.5402 63.9983C84.7397 65.869 82.2791 68.1347 80.055 70.701C78.4835 72.512 77.1116 74.4448 75.8899 76.4844C74.981 78.0024 74.3628 79.6718 74.2742 80.8717Z" fill="#FDC640"/>
<path d="M141.74 74.969C141.757 74.7206 141.772 74.4746 141.789 74.2262C142.095 73.9107 142.08 73.5778 141.841 73.2325C141.826 72.5791 141.789 71.9232 141.964 71.2823C142.395 70.9916 142.577 71.2326 142.809 71.6028C143.691 73.0014 144.454 74.4548 145.001 76.0174C146.971 81.6568 146.474 87.326 145.016 92.948C143.252 99.75 140.343 106.083 136.752 112.085C131.415 121.006 124.654 128.705 116.713 135.348C111.836 139.427 106.548 142.875 100.735 145.446C97.2816 146.974 93.688 148.107 89.9121 148.47C88.9417 148.562 87.9146 148.681 86.8136 148.283C87.055 148.095 87.1658 147.958 87.3062 147.906C90.3506 146.761 92.8235 144.709 95.353 142.746C96.5772 141.797 96.725 140.167 97.6191 139.007H97.6289C98.0279 139.087 98.39 139.109 98.3851 138.533V138.54C98.4787 138.478 98.5698 138.413 98.6634 138.351C98.7077 138.299 98.7644 138.272 98.8309 138.269C98.9934 138.279 99.092 138.2 99.1338 138.043L99.1264 138.048C99.22 137.981 99.3136 137.916 99.4072 137.849C103.141 135.161 106.966 132.598 110.38 129.48C122.58 118.343 132.035 105.263 137.959 89.7134C139.324 86.1335 140.43 82.4542 141.026 78.6433C141.075 78.3228 141.213 78.0173 141.309 77.7067C141.516 77.5428 141.523 77.339 141.434 77.1105C141.41 77.0533 141.417 76.9987 141.462 76.9515C141.902 76.3404 141.91 75.6671 141.745 74.969H141.74Z" fill="#FDFEFD"/>
<path d="M97.6166 139.007C96.7225 140.17 96.5747 141.797 95.3506 142.746C92.821 144.706 90.3481 146.758 87.3037 147.906C87.1634 147.958 87.055 148.095 86.8111 148.283C87.9121 148.681 88.9392 148.564 89.9097 148.47C93.688 148.107 97.2792 146.974 100.732 145.446C106.543 142.875 111.833 139.427 116.71 135.348C124.651 128.705 131.415 121.003 136.75 112.085C140.341 106.083 143.25 99.75 145.013 92.948C146.471 87.326 146.969 81.6568 144.999 76.0174C144.452 74.4548 143.688 73.0014 142.806 71.6028C142.575 71.2351 142.393 70.9916 141.962 71.2823C141.654 70.3706 141.905 69.4191 141.762 68.4949C142.107 68.0651 141.801 67.6254 141.789 67.1882C141.782 66.9074 141.654 66.5522 141.902 66.3733C142.203 66.1572 142.407 66.5149 142.634 66.6615C143.316 67.1062 143.843 67.7794 144.644 68.0552H144.671C144.755 68.1322 144.838 68.2117 144.925 68.2887C145.006 68.3707 145.09 68.4527 145.171 68.5347C145.25 68.6241 145.329 68.716 145.41 68.8054C148.681 72.2537 149.902 76.5242 150.109 81.1376C150.42 88.034 148.737 94.5876 146.462 101.005C142.782 111.386 136.959 120.477 129.767 128.707C122.235 137.325 113.612 144.537 103.277 149.548C96.8727 152.653 90.1978 154.375 83.0525 153.697C80.4835 153.453 77.8776 153.001 75.7742 151.404C74.1362 150.159 72.5672 148.738 71.3751 146.803C72.9145 146.706 74.3628 146.651 75.8037 146.517C83.2077 145.831 89.9466 143.119 96.4146 139.598C96.8062 139.385 97.2151 139.198 97.6141 138.997L97.6166 139.007Z" fill="#F4E5CA"/>
<path d="M150.422 71.2947C152.974 73.3542 154.912 75.8857 156.171 78.9538C157.907 83.1896 158.595 87.6166 158.218 92.1555C157.915 95.79 156.787 99.2581 155.37 102.607C152.728 108.858 149.37 114.725 145.686 120.397C142.703 124.988 139.267 129.221 135.602 133.296C130.644 138.806 125.144 143.643 118.912 147.59C111.434 152.33 103.41 155.771 94.6215 157.155C90.7422 157.766 86.885 157.508 83.1042 156.39C83.0032 156.36 82.9244 156.251 82.7914 156.146C83.5771 155.54 84.2569 156.261 84.9762 156.251C93.1018 156.144 100.619 153.856 107.666 149.901C112.247 147.329 116.528 144.301 120.585 140.942C123.309 138.687 125.87 136.257 128.373 133.765C133.407 128.752 137.531 123.026 141.269 116.984C144.471 111.809 147.085 106.351 149.058 100.61C151.316 94.0336 152.769 87.2688 152.294 80.2482C152.122 77.7117 151.602 75.1926 150.644 72.8027C150.464 72.3555 150.306 71.9009 150.139 71.4512C150.233 71.3991 150.326 71.3469 150.42 71.2947H150.422Z" fill="#FDC640"/>
<path d="M98.3826 138.533C98.3875 139.106 98.0255 139.087 97.6264 139.007C97.8013 138.721 98.0452 138.552 98.3826 138.533Z" fill="#F4E5CA"/>
<path d="M81.7372 155.833C81.6633 155.868 81.5993 155.923 81.5353 155.92C81.4737 155.918 81.4146 155.853 81.353 155.816C81.417 155.784 81.4811 155.726 81.5451 155.729C81.6067 155.729 81.6683 155.794 81.7372 155.833Z" fill="#FDC640"/>
<path d="M141.43 77.1105C141.518 77.3366 141.511 77.5428 141.304 77.7067C141.242 77.4856 141.265 77.2844 141.43 77.1105Z" fill="#F4E5CA"/>
<path d="M99.1289 138.043C99.087 138.2 98.9885 138.277 98.826 138.269C98.9269 138.195 99.0279 138.12 99.1289 138.043Z" fill="#F4E5CA"/>
<path d="M74.2742 80.8717C74.3628 79.6718 74.981 77.9999 75.8899 76.4844C77.1116 74.4448 78.4835 72.512 80.055 70.701C82.2816 68.1372 84.7397 65.869 87.5402 63.9983C89.8875 62.4307 92.3481 61.1165 95.22 60.6519C98.0993 60.1874 99.8407 62.0431 98.9663 64.9026C98.1437 67.5881 96.5501 69.8265 94.8383 71.9878C91.1831 76.6037 86.8308 80.437 81.8456 83.5126C80.6165 84.2703 79.2421 84.8963 77.7077 84.9162C75.3012 84.9485 74.2643 83.9274 74.2742 80.8717Z" fill="#FFDF9F"/>
<defs>
<filter id="filter0_dd_1293_2" x="-2" y="0" width="216.543" height="212.609" filterUnits="userSpaceOnUse" color-interpolation-filters="sRGB">
<feFlood flood-opacity="0" result="BackgroundImageFix"/>
<feColorMatrix in="SourceAlpha" type="matrix" values="0 0 0 0 0 0 0 0 0 0 0 0 0 0 0 0 0 0 127 0" result="hardAlpha"/>
<feMorphology radius="1" operator="dilate" in="SourceAlpha" result="effect1_dropShadow_1293_2"/>
<feOffset dy="1"/>
<feGaussianBlur stdDeviation="1.5"/>
<feColorMatrix type="matrix" values="0 0 0 0 0 0 0 0 0 0 0 0 0 0 0 0 0 0 0.15 0"/>
<feBlend mode="normal" in2="BackgroundImageFix" result="effect1_dropShadow_1293_2"/>
<feColorMatrix in="SourceAlpha" type="matrix" values="0 0 0 0 0 0 0 0 0 0 0 0 0 0 0 0 0 0 127 0" result="hardAlpha"/>
<feOffset dy="1"/>
<feGaussianBlur stdDeviation="1"/>
<feColorMatrix type="matrix" values="0 0 0 0 0 0 0 0 0 0 0 0 0 0 0 0 0 0 0.3 0"/>
<feBlend mode="normal" in2="effect1_dropShadow_1293_2" result="effect2_dropShadow_1293_2"/>
<feBlend mode="normal" in="SourceGraphic" in2="effect2_dropShadow_1293_2" result="shape"/>
</filter>
<linearGradient id="paint0_linear_1293_2" x1="106.272" y1="3" x2="106.272" y2="207.609" gradientUnits="userSpaceOnUse">
<stop stop-color="#FEF7E5"/>
<stop offset="1" stop-color="#FEF4B8"/>
</linearGradient>
</defs>
</svg>
